<svg width="28" height="28" viewBox="0 0 28 28" fill="none" xmlns="http://www.w3.org/2000/svg">
<path d="M13.1318 4.06482C13.6475 3.68293 14.3525 3.68293 14.8682 4.06482L23.0352 10.1146C23.4063 10.3897 23.625 10.8246 23.625 11.2865V23.3334C23.6249 24.1386 22.9722 24.7912 22.167 24.7914H18.667C17.8616 24.7914 17.2081 24.1387 17.208 23.3334V17.5004C17.208 17.0171 16.8163 16.6254 16.333 16.6254H11.667C11.1837 16.6254 10.792 17.0171 10.792 17.5004V23.3334C10.7919 24.1387 10.1384 24.7914 9.33301 24.7914H5.83301C5.02778 24.7912 4.37506 24.1386 4.375 23.3334V11.2865C4.375 10.8246 4.59374 10.3897 4.96484 10.1146L13.1318 4.06482Z" fill="#222222" stroke="#222222" stroke-width="1.75" stroke-linejoin="round"/>
</svg>
