<svg width="28" height="28" viewBox="0 0 28 28" fill="none" xmlns="http://www.w3.org/2000/svg">
<path fill-rule="evenodd" clip-rule="evenodd" d="M14 3.5C19.8011 3.5 24.5 8.19892 24.5 14C24.5 19.8011 19.8011 24.5 14 24.5C12.0446 24.5 10.2111 23.9597 8.64644 23.024L5.06051 23.9187C4.78538 23.9873 4.49439 23.9066 4.29388 23.7061C4.09336 23.5056 4.01268 23.2146 4.08133 22.9395L4.97619 19.3526C4.04123 17.7834 3.5 15.9571 3.5 14C3.5 8.19892 8.19892 3.5 14 3.5ZM12.788 14C12.788 14.6691 13.3304 15.2115 13.9996 15.2115C14.6687 15.2115 15.2111 14.6691 15.2111 14C15.2111 13.3309 14.6687 12.7885 13.9996 12.7885C13.3304 12.7885 12.788 13.3309 12.788 14ZM18.8462 15.2115C18.1771 15.2115 17.6347 14.6691 17.6347 14C17.6347 13.3309 18.1771 12.7885 18.8462 12.7885C19.5154 12.7885 20.0578 13.3309 20.0578 14C20.0578 14.6691 19.5154 15.2115 18.8462 15.2115ZM7.94231 14C7.94231 14.6691 8.48473 15.2115 9.15385 15.2115C9.82296 15.2115 10.3654 14.6691 10.3654 14C10.3654 13.3309 9.82296 12.7885 9.15385 12.7885C8.48473 12.7885 7.94231 13.3309 7.94231 14Z" fill="#222222"/>
</svg>
