<svg width="28" height="28" viewBox="0 0 28 28" fill="none" xmlns="http://www.w3.org/2000/svg">
<path d="M6.73738 25.2438C6.1346 25.3313 5.59502 25.1878 5.11863 24.8135C4.64224 24.4392 4.36516 23.9507 4.28738 23.3479L2.75613 10.7771C2.67835 10.1743 2.82419 9.63715 3.19363 9.16563C3.56307 8.6941 4.04919 8.41945 4.65196 8.34167L6.03738 8.15208V17.5875C6.03738 18.7931 6.46516 19.8236 7.32071 20.6792C8.17627 21.5347 9.20682 21.9625 10.4124 21.9625H21.3207C21.2624 22.3903 21.0825 22.7646 20.7811 23.0854C20.4797 23.4063 20.1054 23.591 19.6582 23.6396L6.73738 25.2438ZM10.4124 19.775C9.8096 19.775 9.29432 19.5611 8.86655 19.1333C8.43877 18.7056 8.22488 18.1903 8.22488 17.5875V4.8125C8.22488 4.20972 8.43877 3.69444 8.86655 3.26667C9.29432 2.83889 9.8096 2.625 10.4124 2.625H23.1874C23.7902 2.625 24.3054 2.83889 24.7332 3.26667C25.161 3.69444 25.3749 4.20972 25.3749 4.8125V17.5875C25.3749 18.1903 25.161 18.7056 24.7332 19.1333C24.3054 19.5611 23.7902 19.775 23.1874 19.775H10.4124ZM14.7582 14.2771L16.7999 13.0375L18.8415 14.2771C18.9485 14.3451 19.053 14.3451 19.1551 14.2771C19.2572 14.209 19.2888 14.1118 19.2499 13.9854L18.7103 11.6521L20.504 10.0917C20.6013 10.0042 20.6329 9.90694 20.5988 9.8C20.5648 9.69306 20.4846 9.62986 20.3582 9.61042L17.9957 9.42083L17.0478 7.21875C17.0089 7.11181 16.9263 7.05833 16.7999 7.05833C16.6735 7.05833 16.5909 7.11181 16.552 7.21875L15.604 9.42083L13.2415 9.61042C13.1152 9.62986 13.0349 9.69306 13.0009 9.8C12.9669 9.90694 12.9985 10.0042 13.0957 10.0917L14.8895 11.6521L14.3499 13.9854C14.311 14.1118 14.3426 14.209 14.4447 14.2771C14.5468 14.3451 14.6513 14.3451 14.7582 14.2771Z" fill="#222222"/>
</svg>
