<svg width="28" height="28" viewBox="0 0 28 28" fill="none" xmlns="http://www.w3.org/2000/svg">
<path d="M4.65946 4.66663C4.0351 4.66663 3.5 5.14615 3.5 5.77223C3.5 6.39831 4.0351 6.87783 4.65946 6.87783H23.3405C23.9649 6.87783 24.5 6.39831 24.5 5.77223C24.5 5.14615 23.9649 4.66663 23.3405 4.66663H4.65946Z" fill="#222222"/>
<path d="M4.65946 12.8944C4.0351 12.8944 3.5 13.3739 3.5 14C3.5 14.626 4.0351 15.1056 4.65946 15.1056H23.3405C23.9649 15.1056 24.5 14.626 24.5 14C24.5 13.3739 23.9649 12.8944 23.3405 12.8944H4.65946Z" fill="#222222"/>
<path d="M4.65946 21.1221C4.0351 21.1221 3.5 21.6016 3.5 22.2277C3.5 22.8538 4.0351 23.3333 4.65946 23.3333H23.3405C23.9649 23.3333 24.5 22.8538 24.5 22.2277C24.5 21.6016 23.9649 21.1221 23.3405 21.1221H4.65946Z" fill="#222222"/>
</svg>
